<?xml version="1.0" standalone="no"?>
<!DOCTYPE svg PUBLIC "-//W3C//DTD SVG 20010904//EN"
 "http://www.w3.org/TR/2001/REC-SVG-20010904/DTD/svg10.dtd">
<svg version="1.0" xmlns="http://www.w3.org/2000/svg"
 width="111.000000pt" height="111.000000pt" viewBox="0 0 111.000000 111.000000"
 preserveAspectRatio="xMidYMid meet">
<metadata>
Created by potrace 1.11, written by Peter Selinger 2001-2013
</metadata>
<g transform="translate(0.000000,111.000000) scale(0.100000,-0.100000)"
fill="#000000" stroke="none">
<path d="M420 900 c0 -3 -8 -6 -17 -6 -34 -2 -87 -15 -99 -24 -6 -6 -14 -7
-17 -3 -4 3 -13 0 -22 -7 -8 -7 -15 -9 -15 -4 0 5 -4 5 -8 -1 -4 -5 -29 -21
-56 -34 -42 -22 -159 -121 -141 -121 3 0 -2 -12 -13 -27 -10 -16 -17 -34 -15
-40 3 -7 0 -13 -5 -13 -11 0 -6 -111 5 -119 5 -3 9 -13 11 -21 2 -8 11 -23 19
-32 9 -10 13 -18 10 -18 -3 0 5 -11 19 -25 14 -14 29 -25 35 -25 6 0 7 -4 4
-10 -3 -5 -1 -10 5 -10 6 0 31 -13 54 -30 24 -16 46 -26 50 -23 3 4 6 1 6 -5
0 -7 3 -11 8 -10 4 1 17 -3 30 -10 12 -7 22 -10 22 -6 0 3 6 2 13 -5 19 -15
99 -20 115 -7 7 6 22 19 33 29 10 9 19 14 19 10 0 -14 53 63 73 107 23 48 24
52 26 76 0 8 6 12 11 9 6 -4 10 -3 9 2 -4 15 13 63 22 63 5 0 8 3 6 8 -4 12
81 142 93 142 6 0 9 3 7 8 -3 4 1 13 9 20 8 7 14 10 14 6 0 -4 9 1 20 11 11
10 20 15 20 11 0 -4 7 -1 15 8 8 8 24 13 35 11 11 -2 20 0 20 4 0 4 20 8 45 8
30 1 45 -3 42 -11 -2 -6 -12 -10 -21 -10 -9 1 -16 -2 -16 -7 0 -4 -9 -6 -20
-4 -30 6 -95 -61 -127 -130 -15 -33 -28 -62 -28 -65 -3 -14 -31 -66 -38 -71
-5 -3 -9 -10 -9 -15 0 -17 -40 -87 -64 -113 -13 -14 -24 -29 -24 -33 0 -5 -6
-8 -14 -8 -8 0 -22 -10 -30 -22 -9 -12 -16 -19 -16 -15 0 4 -11 0 -24 -8 -13
-9 -34 -18 -47 -20 -36 -7 -47 -25 -16 -26 51 -3 62 -4 75 -12 7 -5 12 -3 12
4 0 8 4 8 15 -1 12 -10 15 -10 15 0 0 9 3 10 13 1 8 -6 17 -8 21 -4 3 4 25 8
47 10 40 3 84 10 84 13 0 1 11 4 25 7 33 6 54 11 60 13 3 1 8 2 13 1 4 0 7 3
7 9 0 6 3 9 8 8 4 -1 17 3 30 10 12 7 22 10 22 6 0 -4 9 1 20 11 11 10 20 14
20 9 0 -5 5 -1 11 9 5 9 17 17 25 17 8 0 12 5 9 10 -3 6 -3 10 2 10 4 0 25 16
46 35 21 19 35 35 32 35 -3 0 2 15 12 33 19 35 23 49 25 89 1 34 -22 118 -33
118 -5 0 -9 5 -9 11 0 14 -51 76 -57 69 -2 -3 -9 3 -14 13 -6 9 -14 15 -19 12
-5 -3 -11 3 -14 13 -3 10 -21 24 -38 31 -156 63 -189 66 -265 28 -83 -43 -163
-141 -178 -218 -2 -10 -9 -27 -15 -38 -6 -12 -8 -21 -5 -21 4 0 -3 -13 -14
-29 -11 -15 -18 -31 -15 -33 8 -9 -115 -130 -126 -123 -5 3 -10 2 -10 -3 0 -5
-8 -12 -17 -15 -10 -3 -33 -10 -50 -15 -21 -7 -35 -7 -39 -1 -3 5 -2 9 3 8 15
-4 48 14 78 43 17 15 34 28 38 28 5 0 5 5 2 10 -3 6 1 13 9 16 9 3 14 9 11 13
-2 4 2 18 9 32 7 13 10 31 8 38 -3 9 0 11 8 6 9 -6 9 -3 0 15 -7 12 -8 20 -2
16 9 -5 28 57 24 77 -1 4 3 7 8 7 6 0 10 7 10 15 0 8 9 24 19 34 11 11 17 22
13 25 -3 3 0 6 6 6 6 0 13 8 16 18 3 9 23 28 43 42 21 14 44 31 51 38 8 7 18
10 23 6 5 -3 12 2 15 11 6 13 8 14 15 3 7 -10 9 -11 9 0 0 7 4 11 9 7 5 -3 12
-1 15 4 3 5 15 7 25 4 11 -3 28 0 38 7 16 10 15 10 -6 4 -17 -4 -21 -3 -16 6
5 9 -23 11 -114 9 -67 -2 -121 -6 -121 -9z"/>
</g>
</svg>
